<?xml version="1.0" encoding="UTF-8" standalone="no"?>
<!-- Created with Inkscape (http://www.inkscape.org/) -->

<svg
   xmlns:dc="http://purl.org/dc/elements/1.1/"
   xmlns:cc="http://creativecommons.org/ns#"
   xmlns:rdf="http://www.w3.org/1999/02/22-rdf-syntax-ns#"
   xmlns:svg="http://www.w3.org/2000/svg"
   xmlns="http://www.w3.org/2000/svg"
   xmlns:sodipodi="http://sodipodi.sourceforge.net/DTD/sodipodi-0.dtd"
   xmlns:inkscape="http://www.inkscape.org/namespaces/inkscape"
   width="123.35455mm"
   height="11.883516mm"
   viewBox="0 0 123.35455 11.883516"
   version="1.1"
   id="svg8"
   inkscape:version="0.92.4 (5da689c313, 2019-01-14)"
   sodipodi:docname="final_p3.svg">
  <defs
     id="defs2" />
  <sodipodi:namedview
     id="base"
     pagecolor="#ffffff"
     bordercolor="#666666"
     borderopacity="1.0"
     inkscape:pageopacity="0.0"
     inkscape:pageshadow="2"
     inkscape:zoom="0.49497475"
     inkscape:cx="-104.43333"
     inkscape:cy="101.58218"
     inkscape:document-units="mm"
     inkscape:current-layer="layer1"
     showgrid="false"
     inkscape:window-width="1366"
     inkscape:window-height="715"
     inkscape:window-x="-8"
     inkscape:window-y="-8"
     inkscape:window-maximized="1"
     fit-margin-top="0"
     fit-margin-left="0"
     fit-margin-right="0"
     fit-margin-bottom="0"
     inkscape:object-nodes="false">
    <inkscape:grid
       type="xygrid"
       id="grid4870"
       originx="-43.341763"
       originy="-246.75529" />
  </sodipodi:namedview>
  <metadata
     id="metadata5">
    <rdf:RDF>
      <cc:Work
         rdf:about="">
        <dc:format>image/svg+xml</dc:format>
        <dc:type
           rdf:resource="http://purl.org/dc/dcmitype/StillImage" />
        <dc:title></dc:title>
      </cc:Work>
    </rdf:RDF>
  </metadata>
  <g
     inkscape:label="Layer 1"
     inkscape:groupmode="layer"
     id="layer1"
     transform="translate(-43.341762,-38.361182)">
    <rect
       style="display:none;opacity:1;fill:#2d2d2d;fill-opacity:0.95566508;fill-rule:nonzero;stroke:none;stroke-width:1.60000002;stroke-linecap:round;stroke-linejoin:round;stroke-miterlimit:4;stroke-dasharray:none;stroke-opacity:1;paint-order:stroke fill markers"
       id="rect4786"
       width="184.83035"
       height="51.026787"
       x="4.9136906"
       y="22.211311"
       ry="0.17470728" />
    <path
       inkscape:connector-curvature="0"
       id="path850"
       d="m 46.511589,38.92314 c -0.696172,0 -1.234853,0.176725 -1.616514,0.530112 -0.381657,0.353388 -0.572557,0.851668 -0.572557,1.494833 v 1.982498 c 0,0.272108 -0.08671,0.484272 -0.25987,0.636229 -0.169625,0.151957 -0.409906,0.227797 -0.720886,0.227797 V 44.823 45.088056 c 0.31098,0 0.551261,0.07608 0.720886,0.228034 0.173161,0.151957 0.25987,0.363885 0.25987,0.635992 v 1.987923 c 0,0.643165 0.1909,1.139555 0.572557,1.489408 0.381661,0.353388 0.920342,0.530113 1.616514,0.530113 v -1.213977 c -0.286243,0 -0.506914,-0.07584 -0.662405,-0.227798 -0.155491,-0.151956 -0.23322,-0.369319 -0.23322,-0.652029 v -2.040744 c 0,-0.629029 -0.189247,-1.079583 -0.567372,-1.351692 -0.01046,-0.0077 -0.0227,-0.0142 -0.03348,-0.0217 0.01079,-0.0072 0.02298,-0.01342 0.03348,-0.02075 0.378125,-0.265041 0.567372,-0.70142 0.567372,-1.309247 v -2.109837 c 0,-0.279177 0.07773,-0.494648 0.23322,-0.646606 0.155491,-0.151955 0.376162,-0.228032 0.662405,-0.228032 z"
       style="font-style:normal;font-variant:normal;font-weight:bold;font-stretch:normal;font-size:40px;line-height:1.25;font-family:sans-serif;-inkscape-font-specification:'sans-serif Bold';letter-spacing:0px;word-spacing:0px;display:inline;fill:#19aeff;fill-opacity:1;stroke:none;stroke-width:0.26458338" />
    <path
       inkscape:connector-curvature="0"
       id="path848"
       d="m 163.52648,38.923141 v 1.213977 c 0.28624,0 0.50715,0.07608 0.66264,0.228034 0.15549,0.151956 0.23323,0.367427 0.23323,0.646605 v 2.109837 c 0,0.612177 0.18073,1.053726 0.53953,1.327405 -0.35935,0.284227 -0.53953,0.742573 -0.53953,1.37598 v 2.040744 c 0,0.28271 -0.0778,0.500073 -0.23323,0.652029 -0.15549,0.151958 -0.3764,0.227798 -0.66264,0.227798 v 1.213976 c 0.69617,0 1.23508,-0.176724 1.61675,-0.530112 0.38165,-0.349854 0.57256,-0.846243 0.57256,-1.489409 v -1.934863 c 0,-0.272109 0.0848,-0.484272 0.25445,-0.636229 0.17316,-0.151956 0.41508,-0.227798 0.72607,-0.227798 v -0.265057 -1.134272 c -0.31099,0 -0.55291,-0.07608 -0.72607,-0.228032 -0.16964,-0.151956 -0.25445,-0.36412 -0.25445,-0.63623 v -1.929439 c 0,-0.643165 -0.19091,-1.141444 -0.57256,-1.494833 -0.38167,-0.353387 -0.92058,-0.530112 -1.61675,-0.530111 z"
       style="font-style:normal;font-variant:normal;font-weight:bold;font-stretch:normal;font-size:40px;line-height:1.25;font-family:sans-serif;-inkscape-font-specification:'sans-serif Bold';letter-spacing:0px;word-spacing:0px;display:inline;fill:#19aeff;fill-opacity:1;stroke:none;stroke-width:0.26458338" />
    <g
       id="g865"
       transform="matrix(0.91835634,0,0,0.91835634,13.013796,-0.69652964)"
       style="stroke-width:1.088902">
      <path
         style="font-style:normal;font-variant:normal;font-weight:bold;font-stretch:normal;font-size:40px;line-height:1.25;font-family:sans-serif;-inkscape-font-specification:'sans-serif Bold';letter-spacing:0px;word-spacing:0px;display:inline;fill:#19aeff;fill-opacity:1;stroke:none;stroke-width:0.28810537"
         d="m 64.915933,42.616006 v 12.570809 h 2.908351 V 42.616006 Z m 5.574338,0 v 2.20555 h 3.070098 v -2.20555 z m 23.170679,0 v 2.20555 h 3.070098 v -2.20555 z m -53.983786,0.541569 v 12.02924 h 2.843754 v -8.256344 l 5.106148,8.256344 h 2.988965 v -12.02924 h -2.843754 v 6.891052 L 43.385465,43.157575 Z M 99.566532,43.52086 V 46.1145 H 98.37074 v 1.970939 h 1.195792 v 4.241602 c 0,1.109517 0.274868,1.893469 0.824238,2.351278 0.55476,0.457811 1.39747,0.686263 2.52853,0.686263 0.50628,0 0.93459,-0.02387 1.28468,-0.07235 0.35009,-0.04309 0.68135,-0.105245 0.99374,-0.186035 V 53.11097 h -0.24237 c -0.0969,0.05386 -0.26952,0.113134 -0.51728,0.177766 -0.24237,0.06463 -0.43882,0.09663 -0.58963,0.09663 -0.36625,0 -0.64636,-0.05403 -0.84026,-0.161747 -0.18851,-0.113107 -0.32043,-0.263658 -0.39584,-0.452169 -0.0808,-0.18851 -0.1238,-0.401219 -0.12919,-0.638204 -0.005,-0.236982 -0.008,-0.514215 -0.008,-0.83199 v -3.215825 h 2.72283 V 46.1145 h -2.72283 v -2.59364 z m -41.719935,2.31097 c -1.561937,0 -2.781807,0.427788 -3.659724,1.284159 -0.87253,0.856375 -1.308964,2.036112 -1.308964,3.538803 0,1.491921 0.43407,2.668775 1.301212,3.530533 0.872533,0.856375 2.094768,1.284677 3.667476,1.284677 1.57271,0 2.792582,-0.428302 3.659725,-1.284677 0.872532,-0.861758 1.308965,-2.038612 1.308965,-3.530533 0,-1.49192 -0.433551,-2.668776 -1.300697,-3.530534 -0.861758,-0.861759 -2.084509,-1.292428 -3.667993,-1.292428 z m 24.245034,0.03204 c -0.554757,0 -1.060961,0.110423 -1.518772,0.331247 -0.457809,0.220826 -0.937257,0.527697 -1.438153,0.920873 V 46.1145 h -2.908351 v 9.072315 h 2.908351 v -6.430616 c 0.215439,-0.129264 0.457787,-0.250695 0.727085,-0.363802 0.269301,-0.118491 0.54705,-0.177767 0.832509,-0.177767 0.355476,0 0.629825,0.0459 0.823722,0.13746 0.199282,0.08617 0.347469,0.226232 0.444418,0.420129 0.09695,0.193895 0.156223,0.447256 0.177766,0.759644 0.02154,0.307001 0.03256,0.681278 0.03256,1.122929 v 4.532023 h 2.924368 v -6.430616 c 0.333933,-0.193894 0.616929,-0.33107 0.848527,-0.411861 0.231597,-0.08617 0.468182,-0.129708 0.710551,-0.129708 0.360863,0 0.640977,0.0459 0.840259,0.13746 0.199281,0.08617 0.345104,0.226232 0.436666,0.420129 0.09695,0.193895 0.153342,0.444374 0.1695,0.751376 0.02154,0.307001 0.03204,0.684159 0.03204,1.131197 v 4.532023 h 2.924887 v -5.905583 c 0,-1.10413 -0.255725,-1.949725 -0.767395,-2.536796 -0.506283,-0.587074 -1.249587,-0.880567 -2.22984,-0.880567 -0.527825,0 -1.066548,0.140058 -1.615921,0.42013 -0.54937,0.280072 -1.114849,0.66536 -1.696538,1.155485 -0.258527,-0.517057 -0.616542,-0.907591 -1.074351,-1.171505 -0.457811,-0.269298 -0.986039,-0.40411 -1.583883,-0.40411 z M 70.571402,46.1145 v 9.072315 h 2.908351 V 46.1145 Z m 23.170164,0 v 9.072315 h 2.908348 V 46.1145 Z m -35.894969,1.745113 c 0.280072,0 0.541563,0.04538 0.783932,0.136943 0.242371,0.09156 0.449828,0.247879 0.622186,0.468705 0.17235,0.21544 0.306644,0.503684 0.403593,0.864547 0.09695,0.360862 0.145727,0.807788 0.145727,1.341003 0,0.576302 -0.04878,1.028994 -0.145727,1.35754 -0.09156,0.32316 -0.231622,0.600393 -0.42013,0.831991 -0.166973,0.210053 -0.371546,0.360607 -0.613918,0.452169 -0.236982,0.08618 -0.48746,0.129708 -0.751374,0.129708 -0.307001,0 -0.581353,-0.04878 -0.823722,-0.145728 -0.236985,-0.09695 -0.442081,-0.250382 -0.614433,-0.460437 -0.177737,-0.220824 -0.312032,-0.511438 -0.403593,-0.872298 -0.09156,-0.36625 -0.13746,-0.797433 -0.13746,-1.292945 0,-0.554757 0.05115,-1.015064 0.153479,-1.381311 0.10772,-0.366249 0.250659,-0.654494 0.428398,-0.864546 0.199282,-0.226214 0.406228,-0.377282 0.621668,-0.452686 0.220827,-0.0754 0.471302,-0.112655 0.751374,-0.112655 z"
         id="path846"
         inkscape:connector-curvature="0" />
      <path
         style="font-style:normal;font-variant:normal;font-weight:bold;font-stretch:normal;font-size:16.69852066px;line-height:1.25;font-family:sans-serif;-inkscape-font-specification:'sans-serif Bold';letter-spacing:0px;word-spacing:0px;fill:#ff4141;fill-opacity:1;stroke:none;stroke-width:1.08890212"
         d="m 417.77734,13.691406 v 14.730469 c -1.39702,-0.677967 -2.76226,-1.232629 -4.09765,-1.664063 -1.31485,-0.451977 -3.01095,-0.677734 -5.08594,-0.677734 -1.99281,0 -3.9857,0.432056 -5.97852,1.294922 -1.99281,0.842322 -3.68696,2.033386 -5.08398,3.574219 -1.4792,1.62301 -2.65081,3.575036 -3.51367,5.855469 -0.84232,2.259888 -1.26367,4.85902 -1.26367,7.796874 0,5.50591 1.26405,9.880932 3.79101,13.126954 2.52697,3.246021 5.89581,4.86914 10.10742,4.86914 2.17771,0 4.09958,-0.369775 5.76368,-1.109375 1.6641,-0.7396 3.45069,-1.889794 5.36132,-3.451172 v 3.605469 h 11.09375 V 13.691406 Z m 21.26368,0 v 8.414063 h 11.71093 v -8.414063 z m -144.9004,2.064453 v 45.886719 h 11.15626 V 30.917969 l 8.50585,19.939453 h 8.16602 l 8.50586,-19.939453 v 30.724609 h 11.77148 V 15.755859 H 328.50195 L 318.20898,38.777344 307.88477,15.755859 Z m 76.30274,10.201172 c -6.1017,0 -10.90878,1.674694 -14.42188,5.023438 -3.49255,3.328199 -5.24023,7.847239 -5.24023,13.558593 0,5.772988 1.85083,10.220996 5.54883,13.34375 3.698,3.122755 9.01887,4.683594 15.96289,4.683594 2.69132,0 5.14643,-0.225756 7.36523,-0.677734 2.2188,-0.451978 4.58147,-1.180823 7.08789,-2.1875 v -8.90625 h -1.23437 c -1.27376,0.965589 -3.00878,1.868615 -5.20703,2.710937 -2.19826,0.842322 -4.46848,1.263672 -6.81055,1.263672 -3.698,0 -6.50343,-0.718139 -8.41406,-2.15625 C 363.18999,51.17517 362.16436,49.100538 362,46.388672 h 25.39258 v -3.882813 c 0,-5.341554 -1.41878,-9.430492 -4.25391,-12.265625 -2.83513,-2.855677 -7.06613,-4.283203 -12.69531,-4.283203 z m 104.56055,0.0918 c -2.65024,0 -5.30094,0.217004 -7.95118,0.648438 -2.62968,0.410888 -4.53013,0.769958 -5.70117,1.078125 v 8.351562 h 1.01758 c 0.90396,-0.349255 2.39376,-0.843591 4.46875,-1.480469 2.07499,-0.657422 4.02701,-0.986328 5.85547,-0.986328 3.04058,0 5.34097,0.369775 6.90234,1.109375 1.56138,0.719056 2.3418,2.03468 2.3418,3.945313 v 0.185547 c -3.26657,0.1849 -6.42036,0.470983 -9.46094,0.861328 -3.04057,0.390344 -5.58813,1.048156 -7.64258,1.972656 -2.07498,0.9245 -3.67669,2.188549 -4.80664,3.791016 -1.12994,1.602466 -1.69531,3.666393 -1.69531,6.193359 0,3.163844 1.10933,5.762975 3.32813,7.796875 2.2188,2.0339 4.97265,3.050781 8.25976,3.050781 1.39702,0 2.68053,-0.122607 3.85156,-0.36914 1.17104,-0.225989 2.30177,-0.585059 3.39063,-1.078125 0.78069,-0.3698 1.61268,-0.872888 2.49609,-1.509766 0.88341,-0.636878 1.62296,-1.182788 2.21875,-1.634766 v 3.667969 h 11 V 38.097656 c 0,-4.149977 -1.40611,-7.189916 -4.2207,-9.121094 -2.79404,-1.951721 -7.3452,-2.927734 -13.65234,-2.927734 z m -35.6543,0.986328 v 34.607422 h 11.09375 V 27.035156 Z m -69.80078,5.855469 c 2.30098,0 3.99708,0.584826 5.08594,1.755859 1.08885,1.171033 1.66297,2.918713 1.72461,5.240235 h -14.39063 c 0.16436,-2.444789 0.93407,-4.222632 2.31055,-5.332031 1.37647,-1.1094 3.13291,-1.664063 5.26953,-1.664063 z m 43.39062,1.294922 c 0.71906,0 1.51018,0.07103 2.37305,0.214844 0.86287,0.143811 1.68416,0.380273 2.46484,0.708984 v 16.980469 c -0.86286,0.616333 -1.85833,1.119421 -2.98828,1.509765 -1.12994,0.3698 -2.1984,0.554688 -3.20508,0.554688 -2.5886,0 -4.46959,-0.760962 -5.64062,-2.28125 -1.17103,-1.540833 -1.75586,-4.006652 -1.75586,-7.396485 0,-3.225477 0.72884,-5.740917 2.1875,-7.548828 1.45866,-1.828455 3.64714,-2.742187 6.56445,-2.742187 z m 68.9375,11.216797 v 7.210937 c -0.86286,0.7396 -1.87099,1.335132 -3.02148,1.78711 -1.12995,0.451977 -2.24802,0.677734 -3.35742,0.677734 -1.39703,0 -2.42461,-0.09244 -3.08203,-0.277344 -0.65743,-0.205444 -1.22279,-0.512939 -1.69532,-0.923828 -0.49306,-0.410889 -0.80056,-0.842944 -0.92382,-1.294922 -0.12327,-0.451977 -0.18555,-1.036804 -0.18555,-1.755859 0,-1.088855 0.28804,-1.961719 0.86328,-2.619141 0.59579,-0.677966 1.44724,-1.19176 2.55664,-1.541015 0.90396,-0.287623 2.23029,-0.53479 3.97656,-0.740235 1.74628,-0.225989 3.3694,-0.400171 4.86914,-0.523437 z"
         transform="matrix(0.26458333,0,0,0.26458333,30.285176,38.9075)"
         id="text4757"
         inkscape:connector-curvature="0" />
    </g>
  </g>
</svg>
